<svg xmlns="http://www.w3.org/2000/svg" viewBox="0 0 256 160" width="256" height="160" role="img" aria-hidden="true">
  <defs>
    <linearGradient id="g" x1="0" y1="0" x2="1" y2="1">
      <stop offset="0" stop-color="#2D7855"/>
      <stop offset="1" stop-color="#84D6AE"/>
    </linearGradient>
  </defs>
  <rect width="256" height="160" fill="#2D7855"/>
  <g fill="url(#g)" stroke="url(#g)" stroke-width="0">
    <path d="M28 36h84c10 0 16 6 16 16v96c0-10-6-16-16-16H28z" />
    <path d="M228 36h-84c-10 0-16 6-16 16v96c0-10 6-16 16-16h84z" opacity=".55" />
    <path d="M44 62h64M44 82h64M44 102h48" stroke-width="6" stroke-linecap="round" opacity=".5" fill="none" />
    <path d="M148 62h64M148 82h64M148 102h48" stroke-width="6" stroke-linecap="round" opacity=".35" fill="none" />
  </g>
</svg>
